<?xml version="1.0" encoding="utf-8"?>
<!-- Generator: Adobe Illustrator 24.0.1, SVG Export Plug-In . SVG Version: 6.00 Build 0)  -->
<svg version="1.1" id="Calque_1" xmlns="http://www.w3.org/2000/svg" xmlns:xlink="http://www.w3.org/1999/xlink" x="0px" y="0px"
	 viewBox="0 0 200 69" style="enable-background:new 0 0 200 69;" xml:space="preserve">
<style type="text/css">
	.st0{fill:none;stroke:#38398C;}
	.st1{fill:#FFFFFF;stroke:#38398C;}
</style>
<polygon class="st0" points="18.7,49.2 46,13.6 73.2,49.2 "/>
<line class="st0" x1="23.7" y1="49.2" x2="48.3" y2="16.6"/>
<line class="st0" x1="31.8" y1="49.2" x2="53.1" y2="22.8"/>
<line class="st0" x1="41.3" y1="49.2" x2="57.2" y2="28.2"/>
<line class="st0" x1="50.6" y1="49.2" x2="61.9" y2="34.3"/>
<line class="st0" x1="59.1" y1="49.2" x2="66.1" y2="40"/>
<line class="st0" x1="68.3" y1="49.2" x2="70.7" y2="46"/>
<line class="st0" x1="43.7" y1="16.6" x2="69.5" y2="49.2"/>
<line class="st0" x1="39.7" y1="21.9" x2="60.2" y2="49.2"/>
<line class="st0" x1="35" y1="27.9" x2="51.9" y2="49.2"/>
<line class="st0" x1="30.4" y1="33.9" x2="42.5" y2="49.2"/>
<line class="st0" x1="26.2" y1="39.4" x2="33.9" y2="49.2"/>
<line class="st0" x1="21.8" y1="45.2" x2="25" y2="49.2"/>
<rect x="16.2" y="48" class="st1" width="60.1" height="2.6"/>
<g>
	<path d="M82.7,6.6h3.5l4.7,12.3H91l4.6-12.3h3.5v23.2h-3.6V15.7h-0.1l-3.6,10H90l-3.6-10h-0.1v14.1h-3.6V6.6z"/>
	<path d="M102.7,6.6h3.6v23.2h-3.6V6.6z"/>
	<path d="M121.7,13.3H118v-0.7c0-0.8-0.2-1.4-0.6-2c-0.4-0.6-1.1-0.8-2-0.8c-0.5,0-0.9,0.1-1.2,0.3c-0.3,0.2-0.6,0.4-0.8,0.7
		c-0.2,0.3-0.3,0.6-0.4,0.9c-0.1,0.4-0.1,0.7-0.1,1.1c0,0.5,0,0.8,0.1,1.2c0,0.3,0.1,0.6,0.3,0.8c0.1,0.2,0.4,0.4,0.6,0.6
		c0.3,0.2,0.6,0.3,1.1,0.5l2.8,1c0.8,0.3,1.5,0.6,2,1c0.5,0.4,0.9,0.8,1.2,1.3c0.3,0.5,0.5,1.1,0.6,1.8c0.1,0.7,0.1,1.4,0.1,2.3
		c0,1-0.1,1.9-0.3,2.7c-0.2,0.8-0.6,1.6-1.1,2.2c-0.5,0.6-1.1,1.1-1.9,1.4c-0.8,0.3-1.8,0.5-3,0.5c-0.9,0-1.7-0.1-2.5-0.4
		c-0.8-0.3-1.4-0.7-2-1.2c-0.5-0.5-1-1.1-1.3-1.7c-0.3-0.7-0.5-1.4-0.5-2.2v-1.2h3.6v1c0,0.6,0.2,1.2,0.6,1.6c0.4,0.5,1.1,0.7,2,0.7
		c0.6,0,1.1-0.1,1.4-0.2c0.3-0.2,0.6-0.4,0.8-0.7c0.2-0.3,0.3-0.7,0.3-1.1c0-0.4,0.1-0.9,0.1-1.4c0-0.6,0-1.1-0.1-1.5
		c0-0.4-0.1-0.7-0.3-0.9c-0.2-0.2-0.4-0.4-0.6-0.6c-0.3-0.2-0.6-0.3-1.1-0.5l-2.6-1c-1.6-0.6-2.6-1.4-3.2-2.3
		c-0.5-1-0.8-2.2-0.8-3.6c0-0.9,0.1-1.7,0.4-2.5c0.3-0.8,0.6-1.5,1.2-2c0.5-0.6,1.2-1,1.9-1.4c0.8-0.3,1.7-0.5,2.8-0.5
		c0.9,0,1.7,0.2,2.5,0.5c0.8,0.3,1.4,0.7,1.9,1.2c0.5,0.5,0.9,1.1,1.2,1.7s0.4,1.3,0.4,1.9V13.3z"/>
	<path d="M136.2,13.3h-3.6v-0.7c0-0.8-0.2-1.4-0.6-2c-0.4-0.6-1.1-0.8-2-0.8c-0.5,0-0.9,0.1-1.2,0.3c-0.3,0.2-0.6,0.4-0.8,0.7
		c-0.2,0.3-0.3,0.6-0.4,0.9c-0.1,0.4-0.1,0.7-0.1,1.1c0,0.5,0,0.8,0.1,1.2c0,0.3,0.1,0.6,0.3,0.8c0.1,0.2,0.4,0.4,0.6,0.6
		c0.3,0.2,0.6,0.3,1.1,0.5l2.8,1c0.8,0.3,1.5,0.6,2,1c0.5,0.4,0.9,0.8,1.2,1.3c0.3,0.5,0.5,1.1,0.6,1.8c0.1,0.7,0.1,1.4,0.1,2.3
		c0,1-0.1,1.9-0.3,2.7c-0.2,0.8-0.6,1.6-1.1,2.2c-0.5,0.6-1.1,1.1-1.9,1.4c-0.8,0.3-1.8,0.5-3,0.5c-0.9,0-1.7-0.1-2.5-0.4
		c-0.8-0.3-1.4-0.7-2-1.2c-0.5-0.5-1-1.1-1.3-1.7c-0.3-0.7-0.5-1.4-0.5-2.2v-1.2h3.6v1c0,0.6,0.2,1.2,0.6,1.6c0.4,0.5,1.1,0.7,2,0.7
		c0.6,0,1.1-0.1,1.4-0.2c0.3-0.2,0.6-0.4,0.8-0.7c0.2-0.3,0.3-0.7,0.3-1.1c0-0.4,0.1-0.9,0.1-1.4c0-0.6,0-1.1-0.1-1.5
		c0-0.4-0.1-0.7-0.3-0.9c-0.2-0.2-0.4-0.4-0.6-0.6s-0.6-0.3-1.1-0.5l-2.6-1c-1.6-0.6-2.6-1.4-3.2-2.3c-0.5-1-0.8-2.2-0.8-3.6
		c0-0.9,0.1-1.7,0.4-2.5c0.3-0.8,0.6-1.5,1.2-2c0.5-0.6,1.2-1,1.9-1.4c0.8-0.3,1.7-0.5,2.8-0.5c0.9,0,1.7,0.2,2.5,0.5
		c0.8,0.3,1.4,0.7,1.9,1.2c0.5,0.5,0.9,1.1,1.2,1.7c0.3,0.6,0.4,1.3,0.4,1.9V13.3z"/>
	<path d="M139,6.6h3.6v23.2H139V6.6z"/>
	<path d="M146,12.1c0-0.9,0.2-1.8,0.5-2.5c0.4-0.7,0.8-1.3,1.4-1.8c0.6-0.5,1.2-0.8,2-1.1c0.7-0.2,1.5-0.4,2.2-0.4
		c0.7,0,1.5,0.1,2.2,0.4c0.7,0.2,1.4,0.6,2,1.1c0.6,0.5,1.1,1.1,1.4,1.8c0.4,0.7,0.5,1.5,0.5,2.5v12.3c0,1-0.2,1.8-0.5,2.5
		c-0.4,0.7-0.8,1.3-1.4,1.8c-0.6,0.5-1.2,0.8-2,1.1c-0.7,0.2-1.5,0.4-2.2,0.4c-0.7,0-1.5-0.1-2.2-0.4c-0.7-0.2-1.4-0.6-2-1.1
		c-0.6-0.5-1.1-1.1-1.4-1.8c-0.4-0.7-0.5-1.5-0.5-2.5V12.1z M149.6,24.4c0,0.8,0.2,1.4,0.7,1.8c0.5,0.4,1.1,0.6,1.7,0.6
		c0.7,0,1.2-0.2,1.7-0.6c0.5-0.4,0.7-1,0.7-1.8V12.1c0-0.8-0.2-1.4-0.7-1.8c-0.5-0.4-1.1-0.6-1.7-0.6c-0.7,0-1.2,0.2-1.7,0.6
		c-0.5,0.4-0.7,1-0.7,1.8V24.4z"/>
	<path d="M161.3,6.6h3.5l5.5,14h0.1v-14h3.6v23.2h-3.4l-5.6-14h-0.1v14h-3.6V6.6z"/>
	<path d="M82.7,35.8h5.5c1,0,1.9,0.1,2.6,0.4c0.8,0.2,1.5,0.7,2.1,1.3c0.6,0.6,1,1.3,1.3,2.1c0.2,0.8,0.4,1.9,0.4,3.3
		c0,1-0.1,1.9-0.2,2.6c-0.1,0.7-0.4,1.4-0.8,2c-0.5,0.8-1.2,1.4-2,1.8c-0.8,0.4-1.9,0.6-3.3,0.6h-1.9V59h-3.6V35.8z M86.3,46.9h1.8
		c0.7,0,1.3-0.1,1.7-0.3c0.4-0.2,0.7-0.5,0.9-0.8c0.2-0.3,0.3-0.7,0.3-1.2c0-0.5,0.1-1,0.1-1.6c0-0.5,0-1.1-0.1-1.5
		c0-0.5-0.1-0.9-0.3-1.3s-0.5-0.6-0.8-0.8C89.5,39.1,89,39,88.2,39h-1.9V46.9z"/>
	<path d="M100,35.8h3l5.7,23.2H105l-1.1-5h-5l-1.1,5h-3.6L100,35.8z M101.5,42.5L101.5,42.5l-1.9,8.4h3.6L101.5,42.5z"/>
	<path d="M110.5,35.8h5.9c4.3,0,6.4,2.3,6.4,6.8c0,1.3-0.2,2.5-0.7,3.5c-0.5,1-1.3,1.7-2.4,2.3l3.9,10.6h-3.9l-3.4-9.9h-2.2V59h-3.6
		V35.8z M114.1,46.2h2.1c0.6,0,1.2-0.1,1.5-0.2c0.4-0.2,0.7-0.4,0.9-0.7c0.2-0.3,0.3-0.7,0.4-1.1c0.1-0.4,0.1-1,0.1-1.5
		c0-0.6,0-1.1-0.1-1.5c-0.1-0.4-0.2-0.8-0.4-1.1c-0.2-0.3-0.5-0.5-0.9-0.7c-0.4-0.2-0.9-0.2-1.6-0.2h-1.9V46.2z"/>
	<path d="M125.8,35.8h3.6V59h-3.6V35.8z"/>
	<path d="M144.8,42.5h-3.6v-0.7c0-0.8-0.2-1.4-0.6-2c-0.4-0.6-1.1-0.8-2-0.8c-0.5,0-0.9,0.1-1.2,0.3c-0.3,0.2-0.6,0.4-0.8,0.7
		c-0.2,0.3-0.3,0.6-0.4,0.9c-0.1,0.4-0.1,0.7-0.1,1.1c0,0.5,0,0.8,0.1,1.2c0,0.3,0.1,0.6,0.3,0.8c0.1,0.2,0.4,0.4,0.6,0.6
		c0.3,0.2,0.6,0.3,1.1,0.5l2.8,1c0.8,0.3,1.5,0.6,2,1c0.5,0.4,0.9,0.8,1.2,1.3c0.3,0.5,0.5,1.1,0.6,1.8c0.1,0.7,0.1,1.4,0.1,2.3
		c0,1-0.1,1.9-0.3,2.7c-0.2,0.8-0.6,1.6-1.1,2.2c-0.5,0.6-1.1,1.1-1.9,1.4c-0.8,0.3-1.8,0.5-3,0.5c-0.9,0-1.7-0.1-2.5-0.4
		c-0.8-0.3-1.4-0.7-2-1.2c-0.5-0.5-1-1.1-1.3-1.7c-0.3-0.7-0.5-1.4-0.5-2.2v-1.2h3.6v1c0,0.6,0.2,1.2,0.6,1.6c0.4,0.5,1.1,0.7,2,0.7
		c0.6,0,1.1-0.1,1.4-0.2c0.3-0.2,0.6-0.4,0.8-0.7c0.2-0.3,0.3-0.7,0.3-1.1c0-0.4,0.1-0.9,0.1-1.4c0-0.6,0-1.1-0.1-1.5
		c0-0.4-0.1-0.7-0.3-0.9c-0.2-0.2-0.4-0.4-0.6-0.6c-0.3-0.2-0.6-0.3-1.1-0.5l-2.6-1c-1.6-0.6-2.6-1.4-3.2-2.3
		c-0.5-1-0.8-2.2-0.8-3.6c0-0.9,0.1-1.7,0.4-2.5c0.3-0.8,0.6-1.5,1.2-2c0.5-0.6,1.2-1,1.9-1.4c0.8-0.3,1.7-0.5,2.8-0.5
		c0.9,0,1.7,0.2,2.5,0.5c0.8,0.3,1.4,0.7,1.9,1.2c0.5,0.5,0.9,1.1,1.2,1.7c0.3,0.6,0.4,1.3,0.4,1.9V42.5z"/>
</g>
</svg>
