<?xml version="1.0" encoding="utf-8"?>
<!-- Generator: Adobe Illustrator 24.0.1, SVG Export Plug-In . SVG Version: 6.00 Build 0)  -->
<svg version="1.1" id="Calque_1" xmlns="http://www.w3.org/2000/svg" xmlns:xlink="http://www.w3.org/1999/xlink" x="0px" y="0px"
	 viewBox="0 0 371.8 192" style="enable-background:new 0 0 371.8 192;" xml:space="preserve">
<style type="text/css">
	.Voûte _x002D__x0020_Vert{fill:url(#SVGID_1_);stroke:#FFFFFF;stroke-width:0.25;stroke-miterlimit:1;}
	.st0{fill:none;stroke:#FFFFFF;}
	.st1{fill:none;stroke:#38398C;}
	.st2{fill:#FFFFFF;stroke:#FFFFFF;}
	.st3{fill:#FFFFFF;stroke:#1A171B;}
</style>
<linearGradient id="SVGID_1_" gradientUnits="userSpaceOnUse" x1="-6.0356" y1="318.4709" x2="-5.3284" y2="317.7638">
	<stop  offset="0" style="stop-color:#249E2E"/>
	<stop  offset="0.9831" style="stop-color:#1C371D"/>
</linearGradient>
<rect width="371.8" height="192"/>
<line class="st0" x1="39.8" y1="106.8" x2="55.4" y2="126.5"/>
<line class="st0" x1="30.9" y1="118.5" x2="37.3" y2="126.5"/>
<polygon class="st0" points="23.5,126 78.5,54.2 133.3,126 "/>
<line class="st0" x1="33.5" y1="126" x2="83.1" y2="60.2"/>
<line class="st0" x1="49.8" y1="126" x2="92.7" y2="72.8"/>
<line class="st0" x1="69.1" y1="126" x2="101" y2="83.7"/>
<line class="st0" x1="87.8" y1="126" x2="110.4" y2="96"/>
<line class="st0" x1="104.9" y1="126" x2="119.1" y2="107.3"/>
<line class="st1" x1="123.3" y1="126" x2="128.3" y2="119.4"/>
<line class="st0" x1="73.9" y1="60.2" x2="125.8" y2="126"/>
<line class="st0" x1="65.7" y1="71" x2="107.1" y2="126"/>
<line class="st0" x1="56.4" y1="83.1" x2="90.3" y2="126"/>
<line class="st0" x1="47.1" y1="95.2" x2="71.5" y2="126"/>
<rect x="18.5" y="123.6" class="st2" width="121" height="5.3"/>
<g>
	<path class="st3" d="M150.4,40.3h7.1l9.4,24.8h0.1l9.4-24.8h7.1v46.8h-7.3V58.7H176l-7.3,20.1h-3.7l-7.2-20.1h-0.1v28.4h-7.3V40.3z
		"/>
	<path class="st3" d="M190.7,40.3h7.3v46.8h-7.3V40.3z"/>
	<path class="st3" d="M228.9,53.8h-7.3v-1.5c0-1.5-0.4-2.9-1.2-4c-0.8-1.1-2.1-1.7-4-1.7c-1,0-1.8,0.2-2.5,0.5
		c-0.6,0.4-1.2,0.8-1.5,1.3c-0.4,0.5-0.6,1.2-0.8,1.9c-0.1,0.7-0.2,1.5-0.2,2.3c0,0.9,0,1.7,0.1,2.3c0.1,0.6,0.3,1.2,0.5,1.6
		c0.3,0.5,0.7,0.9,1.3,1.2c0.6,0.4,1.3,0.7,2.3,1.1l5.6,2c1.6,0.6,3,1.2,4,2c1,0.8,1.8,1.7,2.3,2.7c0.6,1,0.9,2.2,1.1,3.5
		c0.2,1.3,0.3,2.9,0.3,4.6c0,2-0.2,3.8-0.6,5.5c-0.4,1.7-1.1,3.1-2.1,4.3c-1,1.2-2.3,2.2-3.9,2.9c-1.6,0.7-3.6,1.1-6,1.1
		c-1.8,0-3.4-0.3-5-0.9c-1.5-0.6-2.9-1.3-4-2.3c-1.1-1-2-2.2-2.6-3.5c-0.6-1.4-1-2.8-1-4.4v-2.5h7.3V76c0,1.2,0.4,2.3,1.2,3.3
		c0.8,1,2.1,1.5,4,1.5c1.2,0,2.2-0.2,2.9-0.5c0.7-0.3,1.2-0.8,1.6-1.4c0.4-0.6,0.6-1.3,0.7-2.2c0.1-0.9,0.1-1.8,0.1-2.9
		c0-1.2,0-2.2-0.1-3c-0.1-0.8-0.3-1.4-0.6-1.9c-0.3-0.5-0.7-0.9-1.3-1.2s-1.3-0.6-2.2-1l-5.3-2c-3.2-1.2-5.3-2.7-6.4-4.7
		c-1.1-1.9-1.6-4.4-1.6-7.3c0-1.8,0.3-3.4,0.8-5c0.5-1.6,1.3-2.9,2.3-4.1c1-1.1,2.3-2,3.9-2.7c1.6-0.7,3.4-1,5.5-1
		c1.8,0,3.5,0.3,5,0.9c1.5,0.6,2.8,1.4,3.9,2.4c1.1,1,1.9,2.1,2.5,3.4c0.6,1.2,0.9,2.5,0.9,3.8V53.8z"/>
	<path class="st3" d="M258.1,53.8h-7.3v-1.5c0-1.5-0.4-2.9-1.2-4c-0.8-1.1-2.1-1.7-4-1.7c-1,0-1.8,0.2-2.5,0.5
		c-0.6,0.4-1.2,0.8-1.5,1.3c-0.4,0.5-0.6,1.2-0.8,1.9c-0.1,0.7-0.2,1.5-0.2,2.3c0,0.9,0,1.7,0.1,2.3c0.1,0.6,0.3,1.2,0.5,1.6
		c0.3,0.5,0.7,0.9,1.3,1.2c0.6,0.4,1.3,0.7,2.3,1.1l5.6,2c1.6,0.6,3,1.2,4,2c1,0.8,1.8,1.7,2.3,2.7c0.6,1,0.9,2.2,1.1,3.5
		c0.2,1.3,0.3,2.9,0.3,4.6c0,2-0.2,3.8-0.6,5.5s-1.1,3.1-2.1,4.3c-1,1.2-2.3,2.2-3.9,2.9c-1.6,0.7-3.6,1.1-6,1.1
		c-1.8,0-3.4-0.3-5-0.9c-1.5-0.6-2.9-1.3-4-2.3c-1.1-1-2-2.2-2.6-3.5c-0.6-1.4-1-2.8-1-4.4v-2.5h7.3V76c0,1.2,0.4,2.3,1.2,3.3
		c0.8,1,2.1,1.5,4,1.5c1.2,0,2.2-0.2,2.9-0.5s1.2-0.8,1.6-1.4c0.4-0.6,0.6-1.3,0.7-2.2c0.1-0.9,0.1-1.8,0.1-2.9c0-1.2,0-2.2-0.1-3
		c-0.1-0.8-0.3-1.4-0.6-1.9c-0.3-0.5-0.7-0.9-1.3-1.2s-1.3-0.6-2.2-1l-5.3-2c-3.2-1.2-5.3-2.7-6.4-4.7c-1.1-1.9-1.6-4.4-1.6-7.3
		c0-1.8,0.3-3.4,0.8-5c0.5-1.6,1.3-2.9,2.3-4.1c1-1.1,2.3-2,3.9-2.7c1.6-0.7,3.4-1,5.5-1c1.8,0,3.5,0.3,5,0.9
		c1.5,0.6,2.8,1.4,3.9,2.4c1.1,1,1.9,2.1,2.5,3.4c0.6,1.2,0.9,2.5,0.9,3.8V53.8z"/>
	<path class="st3" d="M263.8,40.3h7.3v46.8h-7.3V40.3z"/>
	<path class="st3" d="M277.9,51.4c0-1.9,0.4-3.5,1.1-5c0.7-1.4,1.7-2.6,2.8-3.6c1.2-0.9,2.5-1.7,4-2.1c1.5-0.5,2.9-0.7,4.4-0.7
		c1.5,0,3,0.2,4.4,0.7c1.5,0.5,2.8,1.2,4,2.1c1.2,0.9,2.1,2.1,2.8,3.6c0.7,1.4,1.1,3.1,1.1,5v24.7c0,1.9-0.4,3.6-1.1,5
		c-0.7,1.4-1.7,2.6-2.8,3.5c-1.2,0.9-2.5,1.7-4,2.1c-1.5,0.5-2.9,0.7-4.4,0.7c-1.5,0-3-0.2-4.4-0.7c-1.5-0.5-2.8-1.2-4-2.1
		c-1.2-0.9-2.1-2.1-2.8-3.5c-0.7-1.4-1.1-3.1-1.1-5V51.4z M285.2,76.1c0,1.6,0.5,2.8,1.5,3.6c1,0.8,2.1,1.1,3.5,1.1
		c1.3,0,2.5-0.4,3.5-1.1c1-0.8,1.5-2,1.5-3.6V51.4c0-1.6-0.5-2.8-1.5-3.6c-1-0.8-2.1-1.1-3.5-1.1c-1.3,0-2.5,0.4-3.5,1.1
		c-1,0.8-1.5,2-1.5,3.6V76.1z"/>
	<path class="st3" d="M308.7,40.3h7.1l11.1,28.2h0.1V40.3h7.3v46.8h-6.9L316.2,59h-0.1v28.1h-7.3V40.3z"/>
	<path class="st3" d="M150.4,99.2h11c2,0,3.8,0.2,5.3,0.7c1.5,0.5,2.9,1.3,4.2,2.6c1.2,1.2,2.1,2.7,2.6,4.3c0.5,1.6,0.7,3.9,0.7,6.7
		c0,2.1-0.1,3.8-0.4,5.3c-0.3,1.5-0.8,2.8-1.7,4.1c-1,1.5-2.4,2.7-4,3.6c-1.7,0.9-3.9,1.3-6.6,1.3h-3.7v18.3h-7.3V99.2z
		 M157.7,121.4h3.5c1.5,0,2.6-0.2,3.5-0.6s1.4-0.9,1.8-1.6c0.4-0.7,0.6-1.5,0.7-2.5c0.1-1,0.1-2,0.1-3.2c0-1.1,0-2.1-0.1-3.1
		c-0.1-1-0.3-1.8-0.6-2.6c-0.4-0.7-0.9-1.3-1.7-1.7c-0.8-0.4-1.9-0.6-3.3-0.6h-3.8V121.4z"/>
	<path class="st3" d="M185.2,99.2h6.1l11.5,46.8h-7.3l-2.2-10h-10l-2.2,10h-7.3L185.2,99.2z M188.3,112.6h-0.1l-3.6,16.9h7.3
		L188.3,112.6z"/>
	<path class="st3" d="M206.4,99.2h11.8c8.6,0,13,4.6,13,13.7c0,2.7-0.5,5-1.4,7c-0.9,1.9-2.6,3.5-4.9,4.7l7.9,21.3h-7.8l-6.8-20
		h-4.4v20h-7.3V99.2z M213.7,120h4.2c1.3,0,2.3-0.2,3.1-0.5c0.8-0.3,1.4-0.8,1.8-1.4c0.4-0.6,0.7-1.4,0.8-2.3
		c0.1-0.9,0.2-1.9,0.2-3.1c0-1.2-0.1-2.2-0.2-3.1c-0.1-0.9-0.4-1.7-0.9-2.3c-0.5-0.6-1.1-1.1-1.9-1.4c-0.8-0.3-1.9-0.5-3.2-0.5h-3.8
		V120z"/>
	<path class="st3" d="M237.3,99.2h7.3v46.8h-7.3V99.2z"/>
	<path class="st3" d="M275.5,112.6h-7.3v-1.5c0-1.5-0.4-2.9-1.2-4c-0.8-1.1-2.1-1.7-4-1.7c-1,0-1.8,0.2-2.5,0.5
		c-0.6,0.4-1.2,0.8-1.5,1.3c-0.4,0.5-0.6,1.2-0.8,1.9c-0.1,0.7-0.2,1.5-0.2,2.3c0,0.9,0,1.7,0.1,2.3c0.1,0.6,0.3,1.2,0.5,1.6
		c0.3,0.5,0.7,0.9,1.3,1.2c0.6,0.4,1.3,0.7,2.3,1.1l5.6,2c1.6,0.6,3,1.2,4,2c1,0.8,1.8,1.7,2.3,2.7c0.6,1,0.9,2.2,1.1,3.5
		c0.2,1.3,0.3,2.9,0.3,4.6c0,2-0.2,3.8-0.6,5.5c-0.4,1.7-1.1,3.1-2.1,4.3c-1,1.2-2.3,2.2-3.9,2.9c-1.6,0.7-3.6,1.1-6,1.1
		c-1.8,0-3.4-0.3-5-0.9c-1.5-0.6-2.9-1.3-4-2.3c-1.1-1-2-2.2-2.6-3.5s-1-2.8-1-4.4v-2.5h7.3v2.1c0,1.2,0.4,2.3,1.2,3.3
		c0.8,1,2.1,1.5,4,1.5c1.2,0,2.2-0.2,2.9-0.5c0.7-0.3,1.2-0.8,1.6-1.4c0.4-0.6,0.6-1.3,0.7-2.2c0.1-0.9,0.1-1.8,0.1-2.9
		c0-1.2,0-2.2-0.1-3c-0.1-0.8-0.3-1.4-0.6-1.9c-0.3-0.5-0.7-0.9-1.3-1.2c-0.6-0.3-1.3-0.6-2.2-1l-5.3-2c-3.2-1.2-5.3-2.7-6.4-4.7
		c-1.1-1.9-1.6-4.4-1.6-7.3c0-1.8,0.3-3.4,0.8-5c0.5-1.6,1.3-2.9,2.3-4.1c1-1.1,2.3-2,3.9-2.7c1.6-0.7,3.4-1,5.5-1
		c1.8,0,3.5,0.3,5,0.9c1.5,0.6,2.8,1.4,3.9,2.4c1.1,1,1.9,2.1,2.5,3.4c0.6,1.2,0.9,2.5,0.9,3.8V112.6z"/>
</g>
</svg>
